<?xml version="1.0" encoding="utf-8"?>
<svg version="1.1" id="Layer_1" xmlns="http://www.w3.org/2000/svg" xmlns:xlink="http://www.w3.org/1999/xlink" x="0px" y="0px"
	 viewBox="0 0 1721.79 715.48" style="enable-background:new 0 0 1721.79 715.48;" xml:space="preserve">
<g>
	<g>
		<g>
			<path fill="#fff" d="M254.99,176.25c-2.94-2.94-7.7-2.94-10.63,0l-48.5,48.5c-5.18,5.18-8.09,12.2-8.09,19.53v112.6
				c0,7.32,2.91,14.35,8.09,19.53l48.5,48.5c2.94,2.94,7.7,2.94,10.63,0l48.48-48.48c5.18-5.18,8.09-12.2,8.09-19.52l0.02-112.62
				c0-7.33-2.91-14.35-8.09-19.53L254.99,176.25z"/>
			<path  fill="#fff" d="M536.99,176.25c-2.94-2.94-7.7-2.94-10.63,0l-48.5,48.5c-5.18,5.18-8.09,12.2-8.09,19.53v112.6
				c0,7.32,2.91,14.35,8.09,19.53l26.75,26.75c9.99,9.99,2.91,27.06-11.21,27.06l-128.09-0.04c-7.32,0-14.35,2.91-19.53,8.09
				l-38.44,38.44c-2.94,2.94-2.94,7.7,0,10.63l39.17,39.17c5.18,5.18,12.2,8.09,19.53,8.09h49.83c7.32,0,14.35-2.91,19.53-8.09
				l150.08-150.07c5.18-5.18,8.09-12.2,8.09-19.52l0.02-112.62c0-7.33-2.91-14.35-8.09-19.53L536.99,176.25z"/>
		</g>
	</g>
	<g>
		<polygon  fill="#fff" points="820.7,397.12 784.27,298.99 750.43,298.99 806.76,439.32 833.84,439.32 890.17,298.99 857.12,298.99" />
		<rect  fill="#fff" x="1125.76" y="298.99" width="30.65" height="139.34"/>
		<polygon fill="#fff" points="1317.95,384.78 1252.66,298.99 1224.39,298.99 1224.39,438.32 1254.65,438.32 1254.65,349.75 1322.13,438.32 
			1348.2,438.32 1348.2,298.99 1317.95,298.99 		"/>
		<path  fill="#fff" d="M1503.37,298.99v79.82c0,22.09-11.35,33.44-30.06,33.44c-18.71,0-30.06-11.74-30.06-34.44v-78.82h-30.65v79.62
			c0,41,22.89,61.91,60.31,61.91c37.42,0,61.11-20.7,61.11-62.9v-78.63H1503.37z"/>
		<path  fill="#fff" d="M983.73,297.99l-59.72,140.33h31.25l5.51-13.51l2.83-6.94h67.73l2.83,6.94l5.51,13.51h32.05L1012,297.99H983.73z
			 M1021.25,393.13h-47.57l5.35-13.13h-0.07l18.51-45.18l5.53,13.5l0,0l12.98,31.68h-0.07L1021.25,393.13z"/>
	</g>
</g>
</svg>
