<svg width="382" height="109" viewBox="0 0 382 109" fill="none" xmlns="http://www.w3.org/2000/svg">
<path d="M166.048 19.5564C166.048 13.1396 170.567 8.13002 177.316 8.13002C179.292 8.12425 181.241 8.60682 183 9.53734V14.3704H182.875C181.309 13.3851 179.509 12.868 177.675 12.877C173.622 12.877 171.448 15.7347 171.448 19.5564C171.448 23.3781 173.622 26.2401 177.675 26.2401C179.509 26.2476 181.31 25.729 182.875 24.7424H183V29.5798C181.233 30.5124 179.276 30.995 177.291 30.9871C170.555 30.9871 166.023 25.9733 166.023 19.5564H166.048ZM165.513 30.5481C164.658 30.7371 163.788 30.8395 162.913 30.8537C158.865 30.8537 156.691 28.6545 156.691 24.6133V8.569H162.016V24.2302C162.016 25.6806 162.701 26.3821 164.149 26.3821C164.569 26.3765 164.988 26.3333 165.401 26.253H165.53L165.513 30.5481ZM162.571 3.20656C162.576 3.84615 162.397 4.47287 162.056 5.00739C161.716 5.54191 161.229 5.96018 160.658 6.20927C160.086 6.45836 159.456 6.52705 158.847 6.40666C158.238 6.28627 157.677 5.98221 157.236 5.53296C156.794 5.08372 156.492 4.50949 156.367 3.88297C156.242 3.25646 156.3 2.60583 156.534 2.01345C156.768 1.42106 157.167 0.913569 157.681 0.555203C158.195 0.196838 158.8 0.00371591 159.42 0.000288871C159.832 -0.0054118 160.241 0.073313 160.623 0.231889C161.005 0.390465 161.353 0.625734 161.646 0.924033C161.939 1.22233 162.172 1.57772 162.331 1.96955C162.489 2.36139 162.571 2.78186 162.571 3.20656ZM138.783 18.2696C138.783 14.8869 140.452 12.6748 143.515 12.6748C146.579 12.6748 147.948 14.7405 147.948 18.2696V30.5352H153.235V18.0544C153.235 12.778 150.593 8.12141 144.838 8.12141C143.533 8.06999 142.242 8.41811 141.128 9.12193C140.014 9.82574 139.127 10.8538 138.578 12.0765V8.569H133.528V30.5481H138.812L138.783 18.2696ZM119.506 26.2702C123.299 26.2702 125.261 23.4125 125.261 19.5435C125.261 15.6744 123.32 12.834 119.535 12.834C115.825 12.834 113.738 15.6874 113.738 19.5564C113.738 23.4255 115.825 26.2831 119.535 26.2831L119.506 26.2702ZM119.535 30.9871C112.857 30.9871 108.325 25.9733 108.325 19.5564C108.325 13.1396 112.845 8.13002 119.535 8.13002C126.225 8.13002 130.703 13.1396 130.703 19.5564C130.703 25.9733 126.183 30.9871 119.535 30.9871ZM101.122 19.0313C101.122 15.4679 102.912 13.4925 106.322 13.4925C106.941 13.493 107.558 13.5813 108.154 13.755H108.242V8.65508C107.572 8.41193 106.865 8.29389 106.155 8.30647C103.597 8.30647 101.894 9.93328 100.913 12.5672V8.569H95.8383V30.5481H101.122V19.0313ZM66.0443 26.3477C69.6251 26.3477 71.6283 23.49 71.6283 19.4918C71.6283 15.4937 69.6251 12.6791 66.0443 12.6791C62.4635 12.6791 60.5437 15.5367 60.5437 19.4918C60.5437 23.447 62.4217 26.3821 66.0443 26.3821V26.3477ZM90.2083 31C85.3087 31 82.5376 28.6674 82.5376 23.3953V13.0061H76.6573V24.0409C76.6573 25.6677 77.254 26.3262 78.5311 26.3262C78.874 26.337 79.217 26.3081 79.5536 26.2401H79.683V30.5438C78.9254 30.7097 78.1537 30.7976 77.3793 30.8063C74.4829 30.8063 72.6925 29.6615 71.9246 27.1568C71.1839 28.3676 70.1491 29.3576 68.9229 30.0287C67.6967 30.6999 66.3216 31.0288 64.9341 30.9828C59.5087 30.9828 55.1308 26.6317 55.1308 19.5091C55.1308 12.4768 59.5212 8.12572 64.9341 8.12572C67.6218 8.12572 69.8379 9.18013 71.3695 11.1125V0.21978H76.6573V8.569H82.5376V3.33998H87.8462V8.569H93.5137V13.0061H87.8462V23.1156C87.8462 25.3148 88.9104 26.3692 90.9554 26.3692C91.7747 26.3814 92.5918 26.2786 93.3843 26.0636H93.5137V30.5481C92.4384 30.8204 91.3364 30.9648 90.2292 30.9785L90.2083 31ZM0 30.5481H5.21259L6.19334 11.6117L6.40619 6.44727H6.48966L7.59979 11.6117L11.8608 30.5481H18.4256L22.7326 11.6117L23.7968 6.44727H23.8803L24.0931 11.6117L25.1198 30.5481H30.5744L28.7924 0.21978H20.095L16.1761 18.4159L15.3415 23.0295H15.2288L14.3357 18.4159L10.4127 0.21978H1.72779L0 30.5481ZM53.1484 19.1648C53.155 20.175 53.0698 21.1836 52.8938 22.1774H37.5273C38.0824 24.8156 40.2567 26.4424 44.3467 26.4424H44.4427C44.7014 26.4424 44.956 26.4424 45.2064 26.4424L45.6238 26.4122L45.9368 26.3821C47.6036 26.2088 49.2302 25.7476 50.7487 25.0178L51.0951 24.8414C51.3956 24.6864 51.6919 24.5143 51.9799 24.3378H52.1092V28.7879C49.7892 30.235 47.129 30.9986 44.4176 30.9957H44.1046C36.3922 30.9957 32.1728 26.4682 32.1728 19.8749C32.1728 12.7953 36.5174 8.13863 42.8276 8.13863C49.1378 8.13863 53.1276 12.7436 53.1276 19.1605L53.1484 19.1648ZM48.1195 17.9339C47.8649 14.6373 46.2039 12.7049 42.8359 12.7049C39.7225 12.7049 37.8278 14.7276 37.4647 17.9339H48.1195Z" fill="white"/>
<path d="M15.0617 96.814V59.9806H0.158325V56.864H33.4783V59.9806H18.575V96.814H15.0617Z" fill="white"/>
<path d="M43.6544 97.2673C41.0855 97.2673 38.8566 96.7007 36.9678 95.5673C35.0789 94.3962 33.6055 92.7529 32.5478 90.6373C31.5278 88.484 31.0178 85.9529 31.0178 83.044C31.0178 80.1729 31.5278 77.6795 32.5478 75.564C33.6055 73.4106 35.0789 71.7484 36.9678 70.5773C38.8566 69.4062 41.0855 68.8206 43.6544 68.8206C46.2611 68.8206 48.5089 69.4062 50.3978 70.5773C52.2866 71.7484 53.7411 73.4106 54.7611 75.564C55.8189 77.6795 56.3477 80.1729 56.3477 83.044C56.3477 85.9529 55.8189 88.484 54.7611 90.6373C53.7411 92.7529 52.2866 94.3962 50.3978 95.5673C48.5089 96.7007 46.2611 97.2673 43.6544 97.2673ZM43.6544 94.3773C46.45 94.3773 48.6789 93.3951 50.3411 91.4307C52.0033 89.4284 52.8344 86.6329 52.8344 83.044C52.8344 79.4551 52.0033 76.6784 50.3411 74.714C48.6789 72.7495 46.45 71.7673 43.6544 71.7673C40.8589 71.7673 38.63 72.7495 36.9678 74.714C35.3433 76.6784 34.5311 79.4551 34.5311 83.044C34.5311 86.6329 35.3433 89.4284 36.9678 91.4307C38.63 93.3951 40.8589 94.3773 43.6544 94.3773Z" fill="white"/>
<path d="M72.264 97.2673C65.7284 97.2673 62.4607 93.7162 62.4607 86.614V69.3306H65.9173V86.444C65.9173 89.1262 66.4651 91.1095 67.5607 92.394C68.6562 93.6784 70.3751 94.3207 72.7173 94.3207C75.2484 94.3207 77.3073 93.4706 78.894 91.7706C80.5184 90.0706 81.3307 87.804 81.3307 84.9706V69.3306H84.7873V96.814H81.444V91.9407C80.5373 93.6784 79.2718 95.0006 77.6473 95.9073C76.0607 96.814 74.2662 97.2673 72.264 97.2673Z" fill="white"/>
<path d="M103.982 97.2673C101.3 97.2673 98.9956 96.6818 97.0689 95.5107C95.1423 94.3018 93.6501 92.6206 92.5923 90.4673C91.5723 88.2762 91.0623 85.7451 91.0623 82.874C91.0623 78.5295 92.1956 75.1106 94.4623 72.6173C96.7667 70.0862 99.9401 68.8206 103.982 68.8206C105.644 68.8206 107.288 69.1418 108.912 69.784C110.537 70.4262 111.897 71.314 112.992 72.4473L111.632 75.054C110.461 73.9206 109.215 73.1084 107.892 72.6173C106.57 72.0884 105.305 71.824 104.096 71.824C101.036 71.824 98.6745 72.7873 97.0123 74.714C95.3878 76.6406 94.5756 79.3795 94.5756 82.9307C94.5756 86.4818 95.3878 89.2773 97.0123 91.3173C98.6745 93.3195 101.036 94.3207 104.096 94.3207C105.305 94.3207 106.57 94.0751 107.892 93.584C109.215 93.0551 110.461 92.224 111.632 91.0907L112.992 93.6973C111.897 94.7929 110.518 95.6618 108.856 96.304C107.231 96.9462 105.607 97.2673 103.982 97.2673Z" fill="white"/>
<path d="M117.638 96.814V56.864H121.095V74.0906C122.039 72.3529 123.343 71.0495 125.005 70.1806C126.705 69.274 128.575 68.8206 130.615 68.8206C137.15 68.8206 140.418 72.3718 140.418 79.474V96.814H136.961V79.7573C136.961 77.0373 136.414 75.0351 135.318 73.7506C134.223 72.4662 132.485 71.824 130.105 71.824C127.385 71.824 125.194 72.674 123.531 74.374C121.907 76.0362 121.095 78.284 121.095 81.1173V96.814H117.638Z" fill="white"/>
<path d="M174.449 97.2673C171.351 97.2673 168.556 96.8707 166.062 96.0773C163.607 95.2462 161.472 94.0373 159.659 92.4507L161.019 89.5607C162.984 91.1095 164.986 92.2618 167.026 93.0173C169.103 93.7351 171.578 94.094 174.449 94.094C178.038 94.094 180.72 93.3951 182.496 91.9973C184.309 90.5995 185.216 88.7673 185.216 86.5007C185.216 84.6118 184.555 83.1384 183.232 82.0806C181.948 81.0229 179.814 80.1918 176.829 79.5873L171.106 78.3973C167.555 77.6795 164.891 76.4706 163.116 74.7706C161.378 73.0706 160.509 70.804 160.509 67.9706C160.509 65.6662 161.095 63.6451 162.266 61.9073C163.475 60.1695 165.137 58.8284 167.252 57.884C169.368 56.9018 171.805 56.4106 174.562 56.4106C180.078 56.4106 184.479 58.0729 187.766 61.3973L186.406 64.2306C184.668 62.6062 182.855 61.4351 180.966 60.7173C179.077 59.9618 176.942 59.584 174.562 59.584C171.389 59.584 168.839 60.3395 166.912 61.8506C165.023 63.3618 164.079 65.3829 164.079 67.914C164.079 69.9162 164.683 71.5029 165.892 72.674C167.101 73.8073 169.047 74.6384 171.729 75.1673L177.509 76.3573C181.325 77.1506 184.158 78.3406 186.009 79.9273C187.86 81.4762 188.786 83.6106 188.786 86.3306C188.786 88.484 188.2 90.3918 187.029 92.054C185.896 93.6784 184.252 94.9629 182.099 95.9073C179.946 96.814 177.396 97.2673 174.449 97.2673Z" fill="white"/>
<path d="M204.28 97.2673C197.744 97.2673 194.476 93.7162 194.476 86.614V69.3306H197.933V86.444C197.933 89.1262 198.481 91.1095 199.576 92.394C200.672 93.6784 202.391 94.3207 204.733 94.3207C207.264 94.3207 209.323 93.4706 210.91 91.7706C212.534 90.0706 213.346 87.804 213.346 84.9706V69.3306H216.803V96.814H213.46V91.9407C212.553 93.6784 211.287 95.0006 209.663 95.9073C208.076 96.814 206.282 97.2673 204.28 97.2673Z" fill="white"/>
<path d="M224.778 96.814V69.3306H228.178V74.3173C228.971 72.5795 230.123 71.2573 231.635 70.3506C233.146 69.444 235.072 68.9151 237.415 68.764L238.831 68.6506L239.171 71.654L236.735 71.9373C234.052 72.164 231.975 73.0518 230.501 74.6006C229.028 76.1118 228.291 78.1518 228.291 80.7206V96.814H224.778Z" fill="white"/>
<path d="M254.638 107.467C249.84 107.467 245.854 106.202 242.681 103.671L243.984 101.064C245.722 102.311 247.403 103.198 249.028 103.727C250.652 104.294 252.484 104.577 254.524 104.577C257.282 104.577 259.379 103.822 260.814 102.311C262.25 100.8 262.968 98.6084 262.968 95.7373V90.4106C262.174 92.224 260.909 93.6407 259.171 94.6607C257.471 95.6807 255.525 96.1906 253.334 96.1906C250.765 96.1906 248.555 95.624 246.704 94.4907C244.891 93.3195 243.474 91.714 242.454 89.674C241.472 87.5962 240.981 85.1973 240.981 82.4773C240.981 79.7573 241.472 77.3773 242.454 75.3373C243.474 73.2973 244.891 71.7106 246.704 70.5773C248.555 69.4062 250.765 68.8206 253.334 68.8206C255.525 68.8206 257.471 69.3306 259.171 70.3506C260.871 71.3706 262.118 72.7684 262.911 74.544V69.3306H266.311V95.2273C266.311 103.387 262.42 107.467 254.638 107.467ZM253.731 93.244C256.564 93.244 258.812 92.2807 260.474 90.354C262.137 88.3895 262.968 85.764 262.968 82.4773C262.968 79.1906 262.137 76.584 260.474 74.6573C258.812 72.7306 256.564 71.7673 253.731 71.7673C250.86 71.7673 248.593 72.7306 246.931 74.6573C245.307 76.584 244.494 79.1906 244.494 82.4773C244.494 85.764 245.307 88.3895 246.931 90.354C248.593 92.2807 250.86 93.244 253.731 93.244Z" fill="white"/>
<path d="M286.265 97.2673C282.034 97.2673 278.69 96.0207 276.235 93.5273C273.817 90.9962 272.608 87.5395 272.608 83.1573C272.608 80.324 273.156 77.8306 274.251 75.6773C275.347 73.524 276.858 71.8429 278.785 70.634C280.749 69.4251 282.997 68.8206 285.528 68.8206C289.193 68.8206 292.045 70.0106 294.085 72.3906C296.125 74.7706 297.145 78.0384 297.145 82.194V83.7807H276.008C276.121 87.1807 277.047 89.8062 278.785 91.6573C280.56 93.4707 283.016 94.3773 286.151 94.3773C287.851 94.3773 289.438 94.1129 290.911 93.584C292.423 93.0551 293.896 92.1673 295.331 90.9207L296.691 93.5273C295.483 94.6984 293.934 95.624 292.045 96.304C290.156 96.9462 288.229 97.2673 286.265 97.2673ZM285.585 71.5973C282.714 71.5973 280.466 72.504 278.841 74.3173C277.255 76.0929 276.329 78.3973 276.065 81.2306H294.028C293.953 78.2084 293.197 75.8473 291.761 74.1473C290.326 72.4473 288.267 71.5973 285.585 71.5973Z" fill="white"/>
<path d="M303.058 96.814V69.3306H306.458V74.3173C307.251 72.5795 308.403 71.2573 309.914 70.3506C311.425 69.444 313.352 68.9151 315.694 68.764L317.111 68.6506L317.451 71.654L315.014 71.9373C312.332 72.164 310.254 73.0518 308.781 74.6006C307.308 76.1118 306.571 78.1518 306.571 80.7206V96.814H303.058Z" fill="white"/>
<path d="M326.522 107.014L331.055 96.7006L319.382 69.3306H323.235L332.925 93.0173L342.728 69.3306H346.468L330.262 107.014H326.522Z" fill="white"/>
<path d="M355.795 69.7335V56.0935H350.479V54.2969H363.202V56.0935H357.885V69.7335H355.795ZM365.622 69.7335V54.2969H367.309L373.102 65.0035L378.895 54.2969H380.582V69.7335H378.675V58.3302L373.762 67.3869H372.478L367.529 58.4035V69.7335H365.622Z" fill="white"/>
</svg>
