<?xml version="1.0" encoding="UTF-8"?>
<svg id="logosandtypes_com" data-name="logosandtypes com" xmlns="http://www.w3.org/2000/svg" viewBox="0 0 150 150">
  <defs>
    <style>
      .cls-1 {
        fill: #0a8cd4;
      }

      .cls-2 {
        fill: none;
      }
    </style>
  </defs>
  <g id="Layer_3" data-name="Layer 3">
    <g id="Layer_3-2" data-name="Layer 3">
      <g id="Layer_2" data-name="Layer 2">
        <path id="Layer_3-3" data-name="Layer 3" class="cls-2" d="M0,0H150V150H0V0Z"/>
      </g>
    </g>
  </g>
  <path class="cls-1" d="M138.13,53.88c-.73-2.19-2.92-4.37-5.83-4.37H68.16s-.73,0-.73-.73v-10.2s-.73-.73-.73,0l-23.32,16.76v.73l23.32,16.76h.73v-10.93s0-.73,.73-.73h59.76c1.46,5.1,2.19,10.93,1.46,17.49-1.46,27.7-24.05,49.56-51.02,51.02-10.2,.73-19.68-1.46-28.42-5.83v13.12c8.75,3.64,18.95,5.83,29.15,5.1,32.07-2.19,58.31-26.24,61.95-58.31,1.46-10.93,0-20.41-2.92-29.88h0Z"/>
  <path class="cls-1" d="M49.94,101.25h33.53s.73,0,.73,.73v10.2c0,.73,.73,.73,.73,.73l24.05-16.76v-.73l-24.05-16.76s-.73,0-.73,.73v10.2s0,.73-.73,.73H22.97c-1.46-7.29-2.19-13.85-1.46-21.14,2.92-26.97,25.51-47.37,52.48-48.1,10.2,0,19.68,2.19,28.42,6.56V14.52c-8.02-3.64-16.76-5.1-26.24-5.1C39.73,9.42,9.85,39.3,9.85,75.74c0,7.29,1.46,14.58,3.64,21.87,.73,2.19,2.92,4.37,5.83,4.37l30.61-.73h0Z"/>
</svg>