<?xml version="1.0" encoding="UTF-8"?>
<svg width="125px" height="38px" viewBox="0 0 125 39" version="1.1" xmlns="http://www.w3.org/2000/svg" xmlns:xlink="http://www.w3.org/1999/xlink">
    <defs></defs>
    <g id="Page-1" stroke="none" stroke-width="1" fill="none" fill-rule="evenodd">
        <g id="THS-Extra-Large" transform="translate(-40.000000, -8.000000)">
            <g id="Header-&amp;-Footer-/-Header-(XL)">
                <g id="Container" transform="translate(40.000000, 8.000000)">
                    <g id="Logo">
                        <g id="THS-Brand-/-THS-Logo">
                            <g id="THS-Brand-/-zEssentials-/-THS-Logo-(White)">
                                <g id="Asset-2">
                                    <g id="houseshop.com" transform="translate(0.000000, 6.721079)" fill-rule="nonzero">
                                        <path d="M118.339469,22.3444517 C115.983949,22.3444517 114.266865,21.4593602 113.188219,19.6891773 L113.089998,19.6891773 L113.132858,20.8801526 C113.17036,21.5767551 113.189112,22.3393735 113.189112,23.1680079 L113.189112,29.0153468 L111.793479,29.0153468 L111.793479,6.70853314 L112.975704,6.70853314 L113.24358,8.89781265 L113.328407,8.89781265 C114.379075,7.24054389 116.058656,6.41190951 118.36715,6.41190951 C120.431579,6.41190951 122.005498,7.09238144 123.088906,8.45332529 C124.172315,9.81426913 124.714317,11.7941497 124.714912,14.392967 C124.714912,16.9165082 124.144932,18.8727903 123.004972,20.2618133 C121.865012,21.6508363 120.309844,22.3450491 118.339469,22.3444517 Z M118.310896,21.1015001 C119.877671,21.1015001 121.090553,20.517513 121.949541,19.3495388 C122.80853,18.1815646 123.237726,16.5478943 123.237131,14.4485279 C123.237131,9.93793699 121.613804,7.68264154 118.36715,7.68264154 C116.584288,7.68264154 115.274673,8.17462454 114.438306,9.15859052 C113.601938,10.1425565 113.185242,11.7457579 113.188219,13.9681948 L113.188219,14.4162667 C113.188219,16.8173349 113.589437,18.5310607 114.391874,19.5574442 C115.19431,20.5838277 116.500949,21.098513 118.311789,21.1015001 L118.310896,21.1015001 Z" id="p" fill="#FEFEFF"></path>
                                        <path d="M110.440706,14.3642904 C110.440706,16.8693112 109.835605,18.8255933 108.625402,20.2331367 C107.415199,21.64068 105.745142,22.3444517 103.615232,22.3444517 C102.273472,22.3444517 101.091248,22.0194502 100.068557,21.3694471 C99.0458674,20.7194441 98.2624796,19.7871557 97.7183942,18.5725821 C97.1743088,17.3580084 96.9022661,15.9540496 96.9022661,14.3607058 C96.9022661,11.8562823 97.5073677,9.90477967 98.7175708,8.50619777 C99.9277739,7.10761588 101.588603,6.40832494 103.70006,6.40832494 C105.801396,6.40832494 107.45032,7.11687604 108.646832,8.53397824 C109.843343,9.95108043 110.441302,11.8945178 110.440706,14.3642904 Z M98.3648677,14.3642904 C98.3648677,16.4738131 98.8271022,18.119432 99.7515711,19.301147 C100.67604,20.4828621 101.982678,21.0737196 103.671486,21.0737196 C105.360294,21.0737196 106.666932,20.4828621 107.591401,19.301147 C108.51587,18.119432 108.978105,16.4738131 108.978105,14.3642904 C108.978105,12.2458062 108.511406,10.6028758 107.578008,9.43549899 C106.644609,8.26812222 105.333506,7.68443383 103.644699,7.68443383 C101.955891,7.68443383 100.654015,8.26603121 99.7390703,9.42922598 C98.8241258,10.5924207 98.3663559,12.2374422 98.3657606,14.3642904 L98.3648677,14.3642904 Z" id="o-2" fill="#FEFEFF"></path>
                                        <path d="M94.3378023,22.0621664 L94.3378023,12.1042155 C94.3378023,10.5598608 94.0139703,9.43699256 93.3663062,8.73561061 C92.7186422,8.03422866 91.7147034,7.68353769 90.3544899,7.68353769 C88.5246009,7.68353769 87.1852222,8.14744151 86.3363537,9.07524914 C85.4874852,10.0030568 85.0627533,11.5073837 85.062158,13.5882298 L85.062158,22.0630625 L83.6665254,22.0630625 L83.6665254,0.0842375254 L85.0594793,0.0842375254 L85.0594793,7.07415984 L84.9889387,9.0376111 L85.0871598,9.0376111 C85.6592233,8.11518033 86.3815949,7.44665699 87.2542746,7.03204108 C88.1269542,6.61742518 89.2106604,6.41011722 90.5053932,6.41011722 C93.9770629,6.41011722 95.7128978,8.27917466 95.7128978,12.0172895 L95.7128978,22.0621664 L94.3378023,22.0621664 Z" id="h" fill="#FEFEFF"></path>
                                        <path d="M82.6110949,18.0644685 C82.6110949,19.4385558 82.0905231,20.4957068 81.0493793,21.2359217 C80.0082356,21.9761365 78.5292638,22.3456465 76.612464,22.3444517 C74.5670838,22.3444517 72.9437568,22.029009 71.7424829,21.3981237 L71.7424829,19.8872251 C73.2523805,20.6524781 74.920962,21.0491765 76.612464,21.045043 C78.1226879,21.045043 79.2697914,20.7932266 80.0537745,20.2895937 C80.8377575,19.7859609 81.2294513,19.1150478 81.2288561,18.2768546 C81.2288561,17.504976 80.9169296,16.8552717 80.2930768,16.3277416 C79.6692239,15.8002116 78.6441527,15.2822404 77.2178632,14.7738281 C75.6885903,14.2182189 74.6141109,13.7402755 73.994425,13.3399979 C73.3747391,12.9397203 72.90804,12.4877651 72.5943278,11.9841322 C72.2800202,11.4804993 72.1228665,10.8660433 72.1228665,10.1407642 C72.1228665,8.99190776 72.6038523,8.08321786 73.5658238,7.41469452 C74.5277954,6.74617118 75.8719364,6.41190951 77.5982468,6.41190951 C79.2125321,6.40537288 80.8117312,6.7238081 82.301252,7.34837987 L81.7806801,8.62000805 C80.2793854,7.99868162 78.8861338,7.68801841 77.6009255,7.68801841 C76.3508387,7.68801841 75.360889,7.89532636 74.6310764,8.30994226 C73.9012638,8.72455817 73.5351669,9.29719411 73.5327858,10.0278501 C73.5327858,10.8284053 73.8167341,11.4688495 74.3846307,11.9491826 C74.9525273,12.4295157 76.0621282,12.967202 77.7134333,13.5622416 C79.0926958,14.0616924 80.0966346,14.511258 80.7252497,14.9109381 C81.3538648,15.3106183 81.8253261,15.7649633 82.1396336,16.273973 C82.4621323,16.8141369 82.6255945,17.4349264 82.6110949,18.0644685 Z" id="s" fill="#FEFEFF"></path>
                                        <path d="M70.5629367,14.7639705 L59.9657721,14.7639705 C59.9827376,15.0211638 59.9925597,15.2568497 60.0130968,15.4907432 C60.0889949,16.3277416 60.2631142,17.1414403 60.6461765,17.8950973 C61.3667623,19.3154853 62.551666,20.0852729 64.1053453,20.2618133 C66.030479,20.4804724 67.8743571,20.097819 69.6593025,19.3835923 L69.896819,19.2894972 C69.9012836,19.3701501 69.9084269,19.4337763 69.9084269,19.4982987 C69.9084269,20.0530118 69.9021765,20.6077248 69.9128915,21.1615417 C69.9128915,21.3201592 69.8557447,21.3855777 69.720021,21.4456194 C67.9841862,22.2082378 66.1599523,22.4430275 64.285715,22.3417632 C62.8999045,22.2664872 61.5980283,21.9053412 60.4559847,21.0799927 C59.0576733,20.0709346 58.2120789,18.690873 57.8468749,17.0204608 C57.3700561,14.8365582 57.4388109,12.66789 58.2272585,10.5610557 C58.7969409,9.0376111 59.7657582,7.82692071 61.2185377,7.05534082 C62.3329008,6.46388586 63.5401275,6.29361852 64.7839639,6.36351774 C65.7277794,6.41728637 66.6331995,6.62429561 67.4627214,7.10014802 C68.9655043,7.96851144 69.8503872,9.30197355 70.2905963,10.9535667 C70.4873473,11.729971 70.5807258,12.5291166 70.5682942,13.3301403 C70.5620438,13.8006159 70.5629367,14.26213 70.5629367,14.7639705 Z M68.1145524,12.8641455 C68.0475834,12.3183939 68.01901,11.7887728 67.9127526,11.2806592 C67.6645211,10.0923725 67.0975174,9.10482189 65.9286862,8.6191119 C64.7598551,8.13340192 63.5669151,8.14146721 62.4382652,8.69797257 C60.7417188,9.5358671 60.2372195,11.1175611 60.0202402,12.8641455 L68.1145524,12.8641455 Z" id="e" fill="#FFFFFF"></path>
                                        <path d="M56.5985739,7.37078347 L55.7886963,9.23028204 C55.1859758,9.03313038 54.6046854,8.81895199 54.0108942,8.65226923 C52.7420561,8.29381167 51.4517879,8.16476695 50.1508047,8.43361012 C49.7852368,8.51094093 49.4329501,8.64167625 49.1051963,8.82164042 C47.9444014,9.45700644 48.0229783,10.9499822 48.8373206,11.6167132 C49.1961935,11.9186811 49.5938161,12.1709561 50.0195456,12.3667856 C51.0285442,12.8148576 52.068795,13.1840689 53.0822583,13.6213871 C53.7217723,13.8923798 54.3459703,14.1984259 54.952031,14.5381423 C56.1726515,15.2290692 56.8780576,16.2587385 56.9164532,17.7033225 C56.9548487,19.0941378 56.5289262,20.2716709 55.3984906,21.138242 C54.7664468,21.6077821 54.0419853,21.9368001 53.273343,22.103389 C52.134871,22.3722321 50.9803266,22.3973242 49.8186387,22.3292172 C48.7935675,22.2691756 47.7863547,22.122208 46.8246808,21.7431391 C46.5719847,21.6436672 46.2541055,21.5710795 46.1103455,21.3775124 C45.9880155,21.2126219 46.0674854,20.8926986 46.0656995,20.6417783 C46.0656995,20.1838488 46.0656995,19.7250231 46.0656995,19.2375208 C46.1353472,19.2661974 46.1889224,19.2850164 46.2442833,19.3092123 C47.8577883,20.0745192 49.5480842,20.5019798 51.3419588,20.4293922 C52.0583414,20.4132831 52.7659125,20.2672502 53.4304968,19.998347 C54.1266557,19.7154131 54.6093743,19.0687481 54.6842945,18.3187201 C54.7592147,17.5686921 54.4140075,16.8387272 53.7876644,16.4227329 C53.0429698,15.9038656 52.2143409,15.5561617 51.3857119,15.2057695 C50.3579619,14.7702435 49.318604,14.3571212 48.3104983,13.8803727 C47.529194,13.5111614 46.8675409,12.9627213 46.4451902,12.1830761 C45.7576424,10.9141364 45.7692504,8.67915354 47.5506241,7.44605956 C48.3151419,6.92646567 49.1898455,6.59293312 50.1052658,6.47195115 C52.2955965,6.14933935 54.4073503,6.46298971 56.4503494,7.29640353 C56.4905307,7.31253412 56.5307121,7.33673 56.5985739,7.37078347 Z" id="s-2" fill="#FFFFFF"></path>
                                        <path d="M44.3637956,22.0756085 C43.751253,22.0756085 43.1583547,22.0756085 42.5654564,22.0756085 C42.4333044,22.0756085 42.436876,21.9859941 42.4225893,21.8963797 C42.3279399,21.3165746 42.2341834,20.7358734 42.1359623,20.1569644 C42.1177051,20.1049284 42.0911691,20.0562042 42.0573854,20.0126853 C42.0063526,20.037551 41.959864,20.070877 41.9198758,20.1112611 C41.0394576,21.4097736 39.7661548,22.0442435 38.2589073,22.2700717 C37.1579943,22.438123 36.0347144,22.3835843 34.9551064,22.109662 C33.1558743,21.6544209 32.0620483,20.5073567 31.7075594,18.6846 C31.5842373,18.0608502 31.5190704,17.4269284 31.512903,16.791048 C31.4941517,13.4842771 31.5039738,10.1775061 31.5039738,6.86983904 L31.5039738,6.63953006 L33.8594946,6.63953006 L33.8594946,6.90837322 C33.8594946,10.2151442 33.8523512,13.5219151 33.8675309,16.8295822 C33.8758719,17.2942128 33.9388114,17.7562327 34.0550439,18.2060592 C34.3398851,19.356708 35.091723,20.0628693 36.2525179,20.291386 C37.3257974,20.5150115 38.439583,20.4397059 39.4732773,20.0736231 C40.7046129,19.6327203 41.3850173,18.7016268 41.7270053,17.4748058 C41.9511394,16.6271816 42.0592822,15.7528855 42.0484562,14.8759885 C42.0555996,12.219818 42.0484562,9.56275142 42.0484562,6.90658094 L42.0484562,6.63773777 L44.3611168,6.63773777 L44.3637956,22.0756085 Z" id="u" fill="#FFFFFF"></path>
                                        <g id="O_Marker_" transform="translate(13.840247, 6.004164)">
                                            <g id="Marker">
                                                <path d="M16.5190045,8.34847645 C16.5190045,12.9241871 8.79793249,26.0419414 8.26485975,26.0419414 C7.73178701,26.0419414 0.0107150299,12.923291 0.0107150299,8.34847645 C0.0107150299,3.77312747 3.70642139,0.0640742879 8.26530621,0.0640742879 C12.824191,0.0640742879 16.5198974,3.77312747 16.5198974,8.34847645 L16.5190045,8.34847645 Z" id="Shape" fill="#F58350"></path>
                                                <ellipse id="Oval" fill="#FFFFFF" cx="8.27378895" cy="8.4882749" rx="6.36919237" ry="6.39219435"></ellipse>
                                            </g>
                                            <g id="House" transform="translate(4.196720, 3.494961)">
                                                <path d="M7.8103639,3.61773287 L6.89601468,4.46906956 L6.53259658,4.14645776 C6.52634615,4.2513066 6.51830987,4.31941353 6.51830987,4.38841661 C6.51830987,5.43511267 6.51830987,6.48270488 6.51830987,7.52940094 C6.51830987,7.69518756 6.47812851,7.75254077 6.30311636,7.75164462 C4.75538981,7.7450729 3.20766327,7.7450729 1.65993672,7.75164462 C1.48135289,7.75164462 1.4447432,7.69429141 1.44563612,7.52940094 C1.45188656,6.50331619 1.44563612,5.47633529 1.44563612,4.45025054 L1.44563612,4.14825005 L0.988461511,4.57033382 L0.0758981287,3.77186962 C0.433065793,3.39817762 0.757195448,3.01373189 1.12507814,2.67319721 C1.3652734,2.45095353 1.48224581,2.22512527 1.45813699,1.89534432 C1.42867066,1.50910631 1.45099364,1.11928371 1.45099364,0.720499685 L2.44034807,0.720499685 L2.44034807,1.29582406 L2.4930303,1.31643537 L3.21450898,0.611170131 C3.39309281,0.431941353 3.57703416,0.258985583 3.75026048,0.0779645182 C3.8306232,-0.00448071943 3.89402046,-0.0232997411 3.98956281,0.0645223599 C5.24619771,1.22891198 6.50461845,2.39180803 7.76482502,3.55321051 C7.78217393,3.57309 7.79743424,3.59471178 7.8103639,3.61773287 Z M2.15997145,3.69569739 L2.15997145,5.094578 C2.59393016,5.094578 3.01449509,5.094578 3.43506001,5.08920113 C3.46988386,5.08920113 3.5323882,5.01392505 3.53328112,4.97270243 C3.54131739,4.58915284 3.54131739,4.20649941 3.53328112,3.82294982 C3.51952878,3.76521459 3.47695149,3.71875304 3.42077331,3.70017811 C3.0055659,3.69300896 2.58946557,3.69659353 2.15907853,3.69659353 L2.15997145,3.69569739 Z M5.71468263,4.39110505 C5.71468263,4.20649941 5.71468263,4.02278991 5.71468263,3.83818427 C5.71468263,3.73154315 5.67539419,3.6939051 5.57092264,3.69480125 C5.19678952,3.69480125 4.82265639,3.69480125 4.44852326,3.7019704 C4.38725263,3.71902827 4.33964031,3.76749516 4.32351458,3.82922283 C4.31369247,4.20470712 4.32351458,4.58019141 4.31637122,4.95567569 C4.31637122,5.06231682 4.35565967,5.09995486 4.46013121,5.09905872 C4.83426434,5.09905872 5.20839747,5.09905872 5.58253059,5.09188957 C5.64333373,5.07404008 5.69061823,5.02590689 5.70753928,4.96463713 C5.72539766,4.77375849 5.71468263,4.58198369 5.71468263,4.39110505 Z" id="Shape" fill="#20415B"></path>
                                                <path d="M6.37276405,8.89512422 C5.64682077,9.61203933 4.75390161,9.89611694 3.76276134,9.86295962 C2.86984218,9.83338687 2.06621494,9.5582707 1.41616979,8.89422808 C3.07164191,9.57171286 4.71639901,9.52511337 6.37276405,8.89512422 Z" id="Shape" fill="#20415B"></path>
                                                <path d="M2.15907853,3.69659353 C2.59035849,3.69659353 3.0055659,3.69659353 3.41988039,3.7019704 C3.47605857,3.72054533 3.51863586,3.76700688 3.5323882,3.82474211 C3.54131739,4.20739555 3.54042447,4.59094513 3.5323882,4.97449472 C3.5323882,5.01571734 3.46899094,5.09009728 3.43416709,5.09099342 C3.01360217,5.09905872 2.59214432,5.09637028 2.15907853,5.09637028 L2.15907853,3.69659353 Z" id="Shape" fill="#FFFFFF"></path>
                                                <path d="M5.71468263,4.39110505 C5.71468263,4.58198369 5.7227189,4.77375849 5.7084322,4.96374099 C5.69151115,5.02501074 5.64422665,5.07314394 5.58342351,5.09099342 C5.20929038,5.10174715 4.83515726,5.09099342 4.46102413,5.09816257 C4.35655259,5.09816257 4.31637122,5.06142067 4.31726414,4.95477955 C4.31726414,4.57929526 4.31726414,4.20381097 4.3244075,3.82832668 C4.34053323,3.76659902 4.38814555,3.71813212 4.44941618,3.70107425 C4.82354931,3.69032053 5.19768244,3.70107425 5.57181556,3.6939051 C5.67628711,3.6939051 5.71914723,3.730647 5.71557555,3.83728812 C5.71468263,4.02189376 5.71468263,4.20649941 5.71468263,4.39110505 Z" id="Shape" fill="#FFFFFF"></path>
                                            </g>
                                        </g>
                                        <path d="M0,22.0567895 L0,0.155032892 L2.30730311,0.155032892 C2.25819256,3.01552418 2.37516497,5.88497691 2.23051206,8.8028214 C2.29580014,8.76414927 2.35582665,8.7171595 2.4090959,8.66302295 C3.38594946,7.25338862 4.77801043,6.59113829 6.43526839,6.42266324 C7.40690105,6.31892335 8.38913648,6.38716984 9.33725567,6.62429561 C11.1775621,7.08491357 12.2910323,8.25438134 12.6464141,10.1192568 C12.7621227,10.7302413 12.8218997,11.3505677 12.8249979,11.9724823 C12.8419634,15.2451998 12.8330342,18.5143327 12.8330342,21.7897386 L12.8330342,22.0657509 L10.5176948,22.0657509 C10.5176948,21.9761365 10.5060868,21.8936913 10.5060868,21.8085576 C10.5060868,18.5358402 10.5060868,15.2634214 10.5060868,11.9913014 C10.5147466,11.4226644 10.429974,10.8564821 10.2551766,10.3155123 C9.9355115,9.36828819 9.30332474,8.7436759 8.33361453,8.50440549 C7.15028447,8.19995889 5.90182524,8.27325752 4.76193789,8.71410316 C3.64489601,9.14425222 3.00824465,10.0117195 2.66982829,11.1336917 C2.3814154,12.0862926 2.31266063,13.0675702 2.30641019,14.0542246 C2.30015976,16.628846 2.30641019,19.2025712 2.30641019,21.7771926 L2.30641019,22.0630625 L0,22.0567895 Z" id="h-2" fill="#FFFFFF"></path>
                                    </g>
                                    <g id="the" transform="translate(6.518310, 0.000000)" fill="#FFFFFF" fill-rule="nonzero">
                                        <path d="M16.0555794,10.8702253 C14.9697897,10.8702253 14.1233024,10.5344701 13.5161173,9.86295962 C12.9089323,9.19144913 12.6053398,8.25109548 12.6053398,7.04189866 C12.6053398,5.84704015 12.8985149,4.88936105 13.4848652,4.16886136 C14.0712154,3.44836168 14.8614489,3.08990412 15.8555655,3.0934887 C16.7353886,3.0934887 17.4294844,3.40146348 17.937853,4.01741304 C18.4462217,4.63336261 18.700406,5.46976357 18.700406,6.52661593 L18.700406,7.07953671 L13.320568,7.07953671 C13.3294972,8.10950475 13.567609,8.89572165 14.0349034,9.43818742 C14.5021977,9.98065318 15.1745659,10.2518861 16.0520078,10.2518861 C16.4283632,10.2560179 16.8043214,10.2260246 17.1753001,10.1622717 C17.5954683,10.0726049 18.0062518,9.9432839 18.402171,9.77603366 L18.402171,10.3952691 C18.0281589,10.5643023 17.636381,10.6905569 17.2342327,10.7716495 C16.8451563,10.84044 16.4506343,10.8734356 16.0555794,10.8702253 Z M15.8564585,3.70107425 C15.1373609,3.70107425 14.5599398,3.94004596 14.1241953,4.41798936 C13.6884507,4.89593277 13.4342664,5.58297642 13.3616423,6.4791203 L17.9798202,6.4791203 C17.9798202,5.60986073 17.7920096,4.93058367 17.4163882,4.4412891 C17.0407669,3.95199454 16.5207903,3.70376268 15.8564585,3.69659353 L15.8564585,3.70107425 Z" id="e-2"></path>
                                        <path d="M10.5087656,10.7322192 L10.5087656,5.86974246 C10.5087656,5.11578674 10.3507189,4.56734668 10.0346255,4.22442228 C9.71853215,3.88149789 9.22831953,3.71033441 8.56398767,3.71093184 C7.67106851,3.71093184 7.01626113,3.93735752 6.59956552,4.3902089 C6.18286991,4.84306028 5.97452211,5.57759955 5.97452211,6.59382672 L5.97452211,10.7322192 L5.29411771,10.7322192 L5.29411771,0 L5.98255838,0 L5.98255838,3.41430821 L5.94862745,4.37318217 L5.99684508,4.37318217 C6.24633584,3.95004039 6.61387698,3.60952243 7.05406137,3.3936969 C7.48028145,3.19116838 8.00948487,3.08990412 8.64167164,3.08990412 C10.3370275,3.08990412 11.1847054,4.00277603 11.1847054,5.82851984 L11.1847054,10.7322192 L10.5087656,10.7322192 Z" id="h-3"></path>
                                        <path d="M3.12075247,10.2635359 C3.49928576,10.2688793 3.87723515,10.2319097 4.24761645,10.1533102 L4.24761645,10.7053349 C3.87855027,10.8216455 3.49324589,10.8776226 3.10646576,10.8711215 C2.44689614,10.8711215 1.95995756,10.6939837 1.64565001,10.3397082 C1.33134247,9.98543262 1.17478398,9.42892726 1.17597453,8.67019211 L1.17597453,3.83101512 L0.0687547754,3.83101512 L0.0687547754,3.42775037 L1.17508162,3.11768458 L1.51796257,1.4212842 L1.86798688,1.4212842 L1.86798688,3.23507943 L4.06010342,3.23507943 L4.06010342,3.82832668 L1.86977272,3.82832668 L1.86977272,8.57788929 C1.86977272,9.15261623 1.97067259,9.57798586 2.17247232,9.85399818 C2.37427205,10.1300105 2.69036543,10.2665231 3.12075247,10.2635359 Z" id="t"></path>
                                    </g>
                                </g>
                            </g>
                        </g>
                    </g>
                </g>
            </g>
        </g>
    </g>
</svg>