<?xml version="1.0" encoding="UTF-8" standalone="no"?>
<svg
   xmlns:svg="http://www.w3.org/2000/svg"
   xmlns="http://www.w3.org/2000/svg"
   version="1.0"
   width="800"
   height="787.979"
   viewBox="0 0 800 787.979"
   id="Layer_1"
   xml:space="preserve"><defs
   id="defs18" />
<path
   d="M 800,393.99 C 800,611.57 620.917,787.979 400.01,787.979 C 179.082,787.979 0,611.57 0,393.99 C 0,176.389 179.082,0 400.01,0 C 620.917,0 800,176.389 800,393.99"
   style="fill:#00a7e4"
   id="path3" />
<path
   d="M 539.941,110.602 C 506.552,110.602 474.688,124.861 451.499,148.09 C 418.209,182.033 402.921,232.116 392.683,266.673 L 358.701,266.237 C 356.364,266.237 354.423,268.237 353.888,269.901 L 348.719,287.427 C 348.185,289.209 349.313,291.526 351.788,291.526 L 385.791,291.071 C 385.791,291.071 340.064,474.668 330.797,511.84 C 319.193,558.496 300.458,606.005 287.13,622.838 C 275.189,637.889 267.208,642.542 259.109,642.542 C 247.781,642.542 241.9,634.363 238.692,620.917 C 236.513,611.174 230.215,597.865 216.195,597.865 C 201.62,597.865 181.658,614.421 181.658,634.363 C 181.658,661.375 226.711,667.455 241.781,667.455 C 271.446,667.455 309.826,648.522 335.689,618.857 C 368.583,581.586 386.841,534.91 403.931,469.103 L 445.697,290.793 L 489.424,291.545 C 492.968,291.545 494.532,289.05 495.187,287.208 L 500.871,270.87 C 501.505,269.009 500.494,266.672 497.742,266.672 L 452.59,266.672 C 463.383,228.847 479.582,172.962 510.278,142.188 C 512.991,139.475 520.655,132.86 527.645,132.801 C 539.944,132.682 543.37,139.713 548.499,151.06 C 553.489,162.229 552.657,181.419 569.57,181.419 C 589.116,181.419 603.83,159.536 603.83,144.406 C 603.827,123.851 568.319,110.602 539.941,110.602"
   style="fill:#ffffff"
   id="path5" />
<path
   d="M 496.889,443.379 C 478.253,443.834 464.708,459.36 463.876,478.451 C 463.064,497.105 474.59,507.74 490.947,507.74 C 518.87,507.74 523.979,482.431 524.355,473.559 C 525.307,451.816 510.156,443.379 496.889,443.379"
   style="fill:#ffffff"
   id="path7" />
<path
   d="M 594.202,443.379 C 575.567,443.834 562.002,459.36 561.21,478.451 C 560.378,497.105 571.903,507.74 588.262,507.74 C 616.185,507.74 621.294,482.431 621.651,473.559 C 622.62,451.816 607.451,443.379 594.202,443.379"
   style="fill:#ffffff"
   id="path9" />
<path
   d="M 691.517,443.379 C 672.862,443.834 659.317,459.36 658.504,478.451 C 657.673,497.105 669.218,507.74 685.575,507.74 C 713.498,507.74 718.607,482.431 718.984,473.559 C 719.935,451.816 704.766,443.379 691.517,443.379"
   style="fill:#ffffff"
   id="path11" />
<path
   d="M 299.884,143.397 C 280.041,143.892 265.366,160.408 264.099,180.766 C 262.891,200.648 274.932,212.016 292.418,212.016 C 322.143,212.016 328.044,185.024 328.639,175.538 C 330.044,152.388 314.083,143.397 299.884,143.397"
   style="fill:#ffffff"
   id="path13" />
<path
   d="M 285.051,429.715 C 283.664,428.388 281.09,427.893 279.03,429.992 C 279.03,429.992 248.672,463.836 238.334,463.836 C 233.661,463.836 233.8,458.112 233.8,457.202 C 233.8,452.191 236.85,443.082 238.453,438.764 L 251.425,404.761 L 282.654,329.192 C 289.11,314.082 296.834,294.516 296.834,281.585 C 296.834,264.811 284.159,260.752 275.03,260.752 C 232.967,260.752 187.796,309.963 170.567,329.569 C 170.507,329.629 170.428,329.747 170.428,329.747 C 169.141,331.114 168.309,333.648 170.903,336.104 L 178.844,343.669 C 180.31,345.036 182.983,345.115 184.647,343.333 C 184.647,343.333 205.322,320.757 212.907,315.212 C 214.907,313.668 218.154,311.568 220.036,311.568 C 222.71,311.568 224.036,315.568 224.036,317.766 C 224.036,324.776 216.986,341.51 213.719,350.145 L 181.34,432.23 C 170.013,459.777 164.725,474.372 164.725,486.789 C 164.725,500.83 172.547,511.92 191.975,511.92 C 236.949,511.94 293.705,444.033 293.705,444.033 C 295.903,441.518 294.794,439.043 293.428,437.775 L 285.051,429.715"
   style="fill:#ffffff"
   id="path15" />
</svg>